<?xml version="1.0" standalone="no"?>
<svg xmlns:xlink="http://www.w3.org/1999/xlink" fill="#000000" width="128" height="128" viewBox="0 0 256 256" id="Flat" xmlns="http://www.w3.org/2000/svg">
  <path d="M208,28H72A28.03146,28.03146,0,0,0,44,56V224a4.0002,4.0002,0,0,0,4,4H192a4,4,0,0,0,0-8H52v-4a20.02229,20.02229,0,0,1,20-20H208a4.0002,4.0002,0,0,0,4-4V32A4.0002,4.0002,0,0,0,208,28Zm-4,160H72a27.915,27.915,0,0,0-20,8.42285V56A20.02229,20.02229,0,0,1,72,36H204Z" style="fill: rgb(255, 255, 255);"/>
</svg>