<?xml version="1.0" standalone="no"?>
<svg version="1.1" id="Uploaded to svgrepo.com" xmlns="http://www.w3.org/2000/svg" xmlns:xlink="http://www.w3.org/1999/xlink" width="128" height="128" viewBox="0 0 32 32" xml:space="preserve">
<style type="text/css" style="fill: rgb(255, 255, 255);">
	.feather_een{fill:#0B1719;}
</style>
<path class="feather_een" d="M26.711,9.272c-0.201-0.553-1.263-0.75-2.616-0.75c-0.419,0-0.865,0.019-1.323,0.052&#10;&#9;c0.615-2.161,0.96-4.331,0.202-4.769c-0.097-0.056-0.209-0.082-0.334-0.082c-0.939,0-2.619,1.479-4.084,3.048&#10;&#9;C18.029,4.134,17.083,1,16,1s-2.029,3.134-2.557,5.77c-1.466-1.568-3.145-3.048-4.084-3.048c-0.125,0-0.237,0.026-0.334,0.082&#10;&#9;C8.267,4.242,8.613,6.412,9.228,8.573C8.77,8.54,8.323,8.521,7.905,8.521c-1.353,0-2.415,0.197-2.616,0.75&#10;&#9;c-0.403,1.107,2.732,3.33,5.139,4.728H8c-0.552,0-1,0.448-1,1v3c0,0.552,0.448,1,1,1l1,8c-0.552,0-1,0.448-1,1v0&#10;&#9;c0,1.657,1.343,3,3,3h10c1.657,0,3-1.343,3-3v0c0-0.552-0.448-1-1-1l1-8c0.552,0,1-0.448,1-1v-3c0-0.552-0.448-1-1-1h-2.428&#10;&#9;C23.979,12.602,27.114,10.379,26.711,9.272z M21,30H11c-1.105,0-2-0.895-2-2h14C23,29.105,22.105,30,21,30z M21.992,27H10.008l-1-8&#10;&#9;h13.984L21.992,27z M24,18H8v-3h16V18z M19.498,14h-6.995c-2.312-1.025-5.465-3.389-6.132-4.33c0.243-0.068,0.706-0.148,1.534-0.148&#10;&#9;c0.377,0,0.798,0.017,1.251,0.049l1.424,0.103L10.189,8.3c-0.597-2.1-0.625-3.086-0.585-3.497c0.462,0.213,1.471,0.898,3.108,2.65&#10;&#9;l1.329,1.422l0.382-1.909C14.976,4.205,15.617,2.67,16,2.143c0.383,0.527,1.024,2.062,1.576,4.822l0.382,1.909l1.329-1.422&#10;&#9;c1.639-1.754,2.648-2.438,3.108-2.651c0.041,0.41,0.013,1.396-0.585,3.498L21.42,9.673l1.424-0.103&#10;&#9;c0.454-0.033,0.875-0.049,1.251-0.049c0.828,0,1.29,0.08,1.534,0.148C24.963,10.611,21.81,12.975,19.498,14z" style="fill: rgb(255, 255, 255);"/>
</svg>