<?xml version="1.0" standalone="no"?>
<svg xmlns:xlink="http://www.w3.org/1999/xlink" fill="#000000" width="128" height="128" viewBox="0 0 32 32" id="template" xmlns="http://www.w3.org/2000/svg"><title style="fill: rgb(255, 255, 255);"/><path d="M13.13,21.535a.353.353,0,0,0-.449.223c-.38,1.128-1.814,2.192-4.157,2.017a.344.344,0,0,0-.379.329.353.353,0,0,0,.327.378c.185.014.365.02.541.02,2.406,0,3.9-1.226,4.34-2.518A.356.356,0,0,0,13.13,21.535Z" style="fill: rgb(255, 255, 255);"/><path d="M22.561,23.306a.347.347,0,0,0-.379.328.354.354,0,0,0,.327.379c.185.013.366.019.541.019,2.406,0,3.9-1.225,4.34-2.517a.355.355,0,1,0-.672-.227C26.338,22.416,24.9,23.48,22.561,23.306Z" style="fill: rgb(255, 255, 255);"/><path d="M30.345,17.315a.348.348,0,0,0-.045-.16c-.043-.073-4.359-7.361-6.514-10.246A3.5,3.5,0,0,0,21.142,5.2a2.475,2.475,0,0,0-1.836.975.354.354,0,0,0,.574.416,1.774,1.774,0,0,1,1.274-.682,2.989,2.989,0,0,1,2.064,1.424c1.772,2.373,5.032,7.772,6.109,9.575-2.5-.23-10.7-.606-12.554,3.976H15.229C13.393,16.3,5.176,16.677,2.673,16.907c1.078-1.8,4.337-7.2,6.109-9.574.706-.945,1.4-1.424,2.059-1.424h.005a1.774,1.774,0,0,1,1.274.682.354.354,0,0,0,.574-.416A2.475,2.475,0,0,0,10.858,5.2,3.5,3.5,0,0,0,8.214,6.909C6.059,9.794,1.743,17.082,1.7,17.155a.348.348,0,0,0-.045.16l0,.011c-.116,4.3,1.97,9.092,6.82,9.446.255.019.507.028.754.028a6.679,6.679,0,0,0,5.309-2.167,3.89,3.89,0,0,0,.891-3.04h1.148a3.888,3.888,0,0,0,.893,3.04A6.68,6.68,0,0,0,22.775,26.8c.247,0,.5-.009.754-.028,4.85-.354,6.936-5.145,6.82-9.446Zm-16.36,6.87a6.377,6.377,0,0,1-5.462,1.88c-4.3-.314-6.179-4.4-6.169-8.412,1.773-.184,10.757-.872,12.295,3.682A3.1,3.1,0,0,1,13.985,24.185Zm9.492,1.88a6.382,6.382,0,0,1-5.462-1.88,3.093,3.093,0,0,1-.669-2.833c1.1-3.262,6-3.844,9.356-3.844,1.341,0,2.437.094,2.944.145C29.656,21.665,27.778,25.751,23.477,26.065Z" style="fill: rgb(255, 255, 255);"/></svg>